<svg width="29" height="30" viewBox="0 0 29 30" fill="none" xmlns="http://www.w3.org/2000/svg">
<rect width="29" height="30" rx="5" fill="url(#paint0_linear_730_1093)"/>
<path fill-rule="evenodd" clip-rule="evenodd" d="M19.0508 6C19.4648 6 19.8005 6.33566 19.8005 6.74971V6.81558C19.8005 6.96968 19.74 7.11762 19.6321 7.22764L19.1485 7.72076C18.9564 7.91659 18.6235 7.7806 18.6235 7.50629C18.6235 7.33713 18.4864 7.2 18.3172 7.2H7.67695C6.57238 7.2 5.67695 8.09543 5.67695 9.2V20.8C5.67695 21.9046 6.57238 22.8 7.67695 22.8H16.6235C17.7281 22.8 18.6235 21.9046 18.6235 20.8V18.3844C18.6235 18.2303 18.684 18.0824 18.7919 17.9724C19.1609 17.5961 19.8005 17.8574 19.8005 18.3844V22C19.8005 23.1046 18.905 24 17.8005 24H6.5C5.39543 24 4.5 23.1046 4.5 22V8C4.5 6.89543 5.39543 6 6.5 6H19.0508ZM8.89007 17.16C9.89048 17.064 10.5025 18.312 10.8791 19.26C11.1734 19.992 11.2793 20.244 11.6324 20.28C11.9855 20.316 12.5622 19.656 12.8093 19.2C12.9816 18.9183 13.3452 18.8324 13.6214 19.008C13.8977 19.1836 13.982 19.5543 13.8097 19.836C13.7156 20.016 12.8446 21.54 11.6677 21.54H11.5735C10.8438 21.492 10.3024 21.024 9.80809 19.776C9.78704 19.7228 9.7663 19.6717 9.7459 19.6226C9.41666 18.8304 8.60705 18.8678 8.29218 19.6659C8.14634 20.0356 8.0425 20.4228 7.98379 20.82C7.91555 21.1514 7.59676 21.3636 7.27174 21.294C6.94674 21.2244 6.7386 20.8994 6.80685 20.568C7.0187 19.56 7.63072 17.268 8.89007 17.16ZM10.9618 12C11.2931 12 11.5618 12.2686 11.5618 12.6C11.5618 12.9314 11.2931 13.2 10.9618 13.2H8.63088C8.29951 13.2 8.03089 12.9314 8.03089 12.6C8.03089 12.2686 8.29951 12 8.63088 12H10.9618ZM13.9157 9.6C13.9157 9.6 13.9157 9.60001 13.9157 9.60001V10.2C13.9157 10.5314 13.6471 10.8 13.3157 10.8H8.63088C8.29951 10.8 8.03089 10.5314 8.03089 10.2C8.03089 9.86863 8.29951 9.6 8.63088 9.6H13.9157Z" fill="white"/>
<path fill-rule="evenodd" clip-rule="evenodd" d="M24.3317 9.77964L21.9777 7.37963C21.923 7.32339 21.8579 7.27875 21.7862 7.24829C21.7145 7.21783 21.6376 7.20215 21.5599 7.20215C21.4822 7.20215 21.4053 7.21783 21.3336 7.24829C21.2619 7.27875 21.1968 7.32339 21.1421 7.37963L14.0803 14.5796C13.9738 14.6924 13.9146 14.8431 13.9155 14.9996V17.9996H16.8579C17.0132 17.9974 17.1612 17.9327 17.2699 17.8196L24.3317 10.6196C24.5559 10.3863 24.5559 10.0129 24.3317 9.77964ZM16.6108 16.7996H15.0925V15.2516L19.8003 10.4516L21.3186 11.9996L16.6108 16.7996H16.6108ZM22.1543 11.1476L20.636 9.59964L21.5658 8.65163L23.0841 10.1996L22.1543 11.1476Z" fill="white"/>
<defs>
<linearGradient id="paint0_linear_730_1093" x1="14.5" y1="0" x2="14.5" y2="30" gradientUnits="userSpaceOnUse">
<stop stop-color="#3AD53F"/>
<stop offset="1" stop-color="#87FB8B"/>
</linearGradient>
</defs>
</svg>
