<svg width="16" height="17" viewBox="0 0 16 17" fill="none" xmlns="http://www.w3.org/2000/svg">
<path fill-rule="evenodd" clip-rule="evenodd" d="M6.40003 8.5V1.0625H7.46669V7.56181L9.32589 6.44938C9.40872 6.39994 9.50347 6.37383 9.60003 6.37383C9.69658 6.37383 9.79133 6.39994 9.87416 6.44938L11.7334 7.56181V1.0625H12.8V8.5C12.8 8.594 12.775 8.68631 12.7275 8.76753C12.68 8.84875 12.6117 8.91596 12.5296 8.9623C12.4476 9.00865 12.3546 9.03246 12.2602 9.03132C12.1659 9.03018 12.0735 9.00413 11.9926 8.95581L9.60003 7.52569L7.20749 8.95688C7.12647 9.00524 7.03401 9.03129 6.93956 9.03239C6.84511 9.03348 6.75207 9.00957 6.66994 8.9631C6.58781 8.91663 6.51954 8.84927 6.47212 8.7679C6.4247 8.68654 6.39982 8.59409 6.40003 8.5Z" fill="#06313A"/>
<path d="M3.19998 0H13.8667C14.4324 0 14.9751 0.223883 15.3751 0.622398C15.7752 1.02091 16 1.56141 16 2.125V14.875C16 15.4386 15.7752 15.9791 15.3751 16.3776C14.9751 16.7761 14.4324 17 13.8667 17H3.19998C2.63419 17 2.09157 16.7761 1.69149 16.3776C1.29141 15.9791 1.06665 15.4386 1.06665 14.875V13.8125H2.13332V14.875C2.13332 15.1568 2.2457 15.427 2.44574 15.6263C2.64578 15.8256 2.91709 15.9375 3.19998 15.9375H13.8667C14.1495 15.9375 14.4209 15.8256 14.6209 15.6263C14.8209 15.427 14.9333 15.1568 14.9333 14.875V2.125C14.9333 1.84321 14.8209 1.57296 14.6209 1.3737C14.4209 1.17444 14.1495 1.0625 13.8667 1.0625H3.19998C2.91709 1.0625 2.64578 1.17444 2.44574 1.3737C2.2457 1.57296 2.13332 1.84321 2.13332 2.125V3.1875H1.06665V2.125C1.06665 1.56141 1.29141 1.02091 1.69149 0.622398C2.09157 0.223883 2.63419 0 3.19998 0Z" fill="#06313A"/>
<path d="M1.06667 5.3125V4.78125C1.06667 4.64035 1.12286 4.50523 1.22288 4.4056C1.3229 4.30597 1.45855 4.25 1.6 4.25C1.74145 4.25 1.8771 4.30597 1.97712 4.4056C2.07714 4.50523 2.13333 4.64035 2.13333 4.78125V5.3125H2.66667C2.80812 5.3125 2.94377 5.36847 3.04379 5.4681C3.14381 5.56773 3.2 5.70285 3.2 5.84375C3.2 5.98465 3.14381 6.11977 3.04379 6.2194C2.94377 6.31903 2.80812 6.375 2.66667 6.375H0.533333C0.391885 6.375 0.256229 6.31903 0.15621 6.2194C0.0561903 6.11977 0 5.98465 0 5.84375C0 5.70285 0.0561903 5.56773 0.15621 5.4681C0.256229 5.36847 0.391885 5.3125 0.533333 5.3125H1.06667ZM1.06667 8.5V7.96875C1.06667 7.82785 1.12286 7.69273 1.22288 7.5931C1.3229 7.49347 1.45855 7.4375 1.6 7.4375C1.74145 7.4375 1.8771 7.49347 1.97712 7.5931C2.07714 7.69273 2.13333 7.82785 2.13333 7.96875V8.5H2.66667C2.80812 8.5 2.94377 8.55597 3.04379 8.6556C3.14381 8.75523 3.2 8.89035 3.2 9.03125C3.2 9.17215 3.14381 9.30727 3.04379 9.4069C2.94377 9.50653 2.80812 9.5625 2.66667 9.5625H0.533333C0.391885 9.5625 0.256229 9.50653 0.15621 9.4069C0.0561903 9.30727 0 9.17215 0 9.03125C0 8.89035 0.0561903 8.75523 0.15621 8.6556C0.256229 8.55597 0.391885 8.5 0.533333 8.5H1.06667ZM1.06667 11.6875V11.1562C1.06667 11.0154 1.12286 10.8802 1.22288 10.7806C1.3229 10.681 1.45855 10.625 1.6 10.625C1.74145 10.625 1.8771 10.681 1.97712 10.7806C2.07714 10.8802 2.13333 11.0154 2.13333 11.1562V11.6875H2.66667C2.80812 11.6875 2.94377 11.7435 3.04379 11.8431C3.14381 11.9427 3.2 12.0779 3.2 12.2188C3.2 12.3596 3.14381 12.4948 3.04379 12.5944C2.94377 12.694 2.80812 12.75 2.66667 12.75H0.533333C0.391885 12.75 0.256229 12.694 0.15621 12.5944C0.0561903 12.4948 0 12.3596 0 12.2188C0 12.0779 0.0561903 11.9427 0.15621 11.8431C0.256229 11.7435 0.391885 11.6875 0.533333 11.6875H1.06667Z" fill="#06313A"/>
</svg>
