<svg width="17" height="18" viewBox="0 0 17 18" fill="none" xmlns="http://www.w3.org/2000/svg">
<path d="M1.41119 14.5319C2.49803 16.7154 4.66824 17.5 8.5 17.5C13.7946 17.5 15.9168 16.002 16.392 11.3853M1.41119 14.5319C0.762814 13.2292 0.5 11.4288 0.5 9C0.5 2.5 2.38235 0.5 8.5 0.5C14.6176 0.5 16.5 2.5 16.5 9C16.5 9.8745 16.4659 10.6676 16.392 11.3853M1.41119 14.5319L4.34545 11.4142C5.08056 10.6332 6.2724 10.6332 7.00748 11.4142L7.16899 11.5858C7.90405 12.3668 9.09595 12.3668 9.83101 11.5858L11.8749 9.4142C12.6099 8.6332 13.8018 8.6332 14.5369 9.4142L16.392 11.3853M7.268 5.846C7.268 6.865 6.48965 7.692 5.53059 7.692C4.57247 7.692 3.79412 6.865 3.79412 5.846C3.79412 4.827 4.57247 4 5.53059 4C6.48965 4 7.268 4.827 7.268 5.846Z" stroke="#06313A" stroke-linecap="round" stroke-linejoin="round"/>
</svg>
