<svg width="15" height="15" viewBox="0 0 15 15" fill="none" xmlns="http://www.w3.org/2000/svg">
<path d="M7.51972 3.76334C7.35358 3.76334 7.19425 3.82942 7.07678 3.94705C6.9593 4.06468 6.8933 4.22422 6.8933 4.39057V7.52668C6.89334 7.69302 6.95936 7.85253 7.07684 7.97013L8.9561 9.8518C9.07424 9.96605 9.23248 10.0293 9.39672 10.0278C9.56097 10.0264 9.71808 9.96045 9.83422 9.84416C9.95037 9.72787 10.0162 9.57055 10.0177 9.4061C10.0191 9.24164 9.95596 9.0832 9.84186 8.96491L8.14614 7.26701V4.39057C8.14614 4.22422 8.08014 4.06468 7.96267 3.94705C7.84519 3.82942 7.68586 3.76334 7.51972 3.76334ZM14.919 6.35503C14.7039 4.99134 14.1185 3.71315 13.2266 2.66028C12.3347 1.60742 11.1708 0.820456 9.86224 0.385491C8.55366 -0.0494733 7.1508 -0.11568 5.80715 0.194114C4.46351 0.503909 3.23084 1.17777 2.24402 2.14197V0.627224C2.24402 0.460874 2.17803 0.301337 2.06055 0.18371C1.94307 0.0660823 1.78374 0 1.6176 0C1.45147 0 1.29214 0.0660823 1.17466 0.18371C1.05718 0.301337 0.991185 0.460874 0.991185 0.627224V3.13612C0.991185 3.46882 1.12318 3.78789 1.35813 4.02315C1.59309 4.2584 1.91175 4.39057 2.24402 4.39057H4.7497C4.91583 4.39057 5.07517 4.32448 5.19264 4.20686C5.31012 4.08923 5.37612 3.92969 5.37612 3.76334C5.37612 3.59699 5.31012 3.43745 5.19264 3.31983C5.07517 3.2022 4.91583 3.13612 4.7497 3.13612H3.02642C4.02744 2.11853 5.34562 1.47391 6.76258 1.30907C8.17953 1.14423 9.61021 1.46906 10.8176 2.22974C12.0249 2.99042 12.9365 4.14129 13.4013 5.49168C13.866 6.84206 13.8561 8.31091 13.3731 9.65486C12.89 10.9988 11.963 12.1372 10.7454 12.8814C9.52784 13.6256 8.09289 13.931 6.6783 13.7469C5.26371 13.5628 3.95438 12.9003 2.96724 11.8692C1.98011 10.8381 1.37442 9.50031 1.25052 8.07739C1.23428 7.9245 1.16151 7.78322 1.04653 7.68131C0.931543 7.57941 0.782651 7.52425 0.629115 7.52668C0.541507 7.52692 0.454909 7.54542 0.374838 7.58102C0.294767 7.61661 0.222978 7.66852 0.164047 7.73343C0.105115 7.79833 0.060333 7.87482 0.0325531 7.95801C0.00477321 8.04121 -0.00539507 8.12928 0.00269615 8.21663C0.101755 9.21607 0.399581 10.1855 0.878626 11.0679C1.35767 11.9504 2.00825 12.7278 2.79203 13.3546C3.57581 13.9813 4.47694 14.4447 5.44233 14.7173C6.40771 14.99 7.41784 15.0664 8.41319 14.9421C9.40854 14.8179 10.369 14.4954 11.2379 13.9937C12.1069 13.492 12.8668 12.8212 13.4728 12.0209C14.0788 11.2206 14.5188 10.307 14.7667 9.33379C15.0147 8.36061 15.0656 7.34759 14.9165 6.3544L14.919 6.35503Z" fill="#05313A"/>
</svg>
