<svg width="16" height="17" viewBox="0 0 16 17" fill="none" xmlns="http://www.w3.org/2000/svg">
<path d="M15.9815 13.0839L15.4723 3.3409C15.3739 1.46642 13.9149 0 12.148 0C10.2367 0 8.71781 1.70574 8.82369 3.73319L8.85072 4.25H7.14934L7.17637 3.73326C7.28225 1.70574 5.76337 0 3.85206 0C2.08512 0 0.626125 1.46642 0.527781 3.34073L0.0186563 13.0827C0.00640625 13.2061 0 13.3314 0 13.4583C0 15.4143 1.49247 17 3.33334 17C5.16566 17 6.65259 15.4289 6.66634 13.4855L6.853 9.91668H9.14709L9.33366 13.4838C9.34656 15.428 10.8338 17 12.6667 17C14.5075 17 16 15.4143 16 13.4583C16 13.3319 15.9936 13.2069 15.9815 13.0839ZM12.148 1.41668C13.2073 1.41668 14.0821 2.29583 14.141 3.41962L14.5115 10.5081C14.5072 10.5051 14.5027 10.5022 14.4984 10.4992C14.4738 10.482 14.449 10.4651 14.4239 10.4486C14.4176 10.4444 14.4114 10.4402 14.405 10.436C14.3753 10.4167 14.3453 10.3979 14.315 10.3795C14.3084 10.3754 14.3016 10.3716 14.2949 10.3676C14.2692 10.3523 14.2433 10.3373 14.2172 10.3227C14.2102 10.3187 14.2032 10.3147 14.1961 10.3109C14.1651 10.2938 14.1337 10.2772 14.1021 10.2611C14.0957 10.2579 14.0892 10.2548 14.0828 10.2515C14.0558 10.2381 14.0286 10.225 14.0013 10.2123C13.9936 10.2087 13.986 10.2051 13.9784 10.2016C13.946 10.1869 13.9135 10.1726 13.8806 10.159C13.8745 10.1564 13.8683 10.154 13.8622 10.1515C13.8339 10.14 13.8055 10.1289 13.777 10.1182C13.7688 10.1151 13.7606 10.112 13.7523 10.109C13.7188 10.0967 13.6851 10.0849 13.6511 10.0737C13.6455 10.0719 13.6399 10.0702 13.6342 10.0684C13.6046 10.0589 13.5748 10.0498 13.5448 10.0411C13.5362 10.0386 13.5275 10.036 13.5188 10.0336C13.4842 10.0239 13.4494 10.0147 13.4143 10.0061C13.4094 10.005 13.4046 10.0039 13.3997 10.0028C13.3685 9.99534 13.3372 9.98843 13.3057 9.98192C13.2966 9.98006 13.2875 9.97817 13.2784 9.97638C13.2427 9.96934 13.2069 9.96276 13.1708 9.95692C13.1671 9.95632 13.1633 9.95582 13.1595 9.95523C13.1265 9.95005 13.0933 9.94543 13.06 9.94128C13.0507 9.94012 13.0413 9.93896 13.0319 9.93786C12.9952 9.93361 12.9584 9.92979 12.9213 9.9268C12.9192 9.92664 12.917 9.92654 12.9148 9.92637C12.8796 9.92362 12.8442 9.92159 12.8088 9.92003C12.7992 9.9196 12.7896 9.9192 12.7799 9.91887C12.7423 9.91754 12.7046 9.91661 12.6667 9.91661C12.6198 9.91661 12.5732 9.91791 12.5269 9.91993C12.5206 9.9202 12.5144 9.92036 12.5082 9.9207C12.4641 9.92289 12.4204 9.92611 12.3768 9.93009C12.3689 9.93082 12.361 9.93155 12.3531 9.93232C12.31 9.9366 12.2671 9.94168 12.2244 9.94769C12.2173 9.94869 12.2103 9.94978 12.2033 9.95084C12.1593 9.95735 12.1156 9.96452 12.0722 9.97282C12.0691 9.97342 12.0661 9.97412 12.063 9.97472C12.0201 9.98305 11.9775 9.99231 11.9352 10.0024C11.9307 10.0034 11.9261 10.0044 11.9216 10.0055C11.8794 10.0158 11.8376 10.027 11.7961 10.0389C11.7889 10.041 11.7818 10.0429 11.7747 10.0451C11.7341 10.057 11.6939 10.0697 11.654 10.0833C11.6468 10.0857 11.6397 10.0882 11.6326 10.0907C11.5921 10.1047 11.5519 10.1193 11.5122 10.135C11.5075 10.1368 11.5028 10.1388 11.4981 10.1406C11.4579 10.1566 11.4181 10.1733 11.3787 10.1909C11.3765 10.1918 11.3743 10.1927 11.3722 10.1937C11.3323 10.2116 11.293 10.2304 11.254 10.2498C11.248 10.2528 11.2419 10.2557 11.2359 10.2588C11.1985 10.2777 11.1614 10.2975 11.1247 10.3178C11.118 10.3216 11.1112 10.3253 11.1046 10.3291C11.0679 10.3498 11.0316 10.3711 10.9958 10.3932C10.9904 10.3966 10.9852 10.3999 10.9798 10.4033C10.9425 10.4266 10.9055 10.4505 10.8691 10.4753C10.8683 10.4759 10.8675 10.4764 10.8667 10.477C10.8306 10.5017 10.795 10.5272 10.7598 10.5533C10.7553 10.5567 10.7507 10.5601 10.7461 10.5635C10.7122 10.5889 10.6789 10.615 10.646 10.6417C10.64 10.6465 10.6341 10.6514 10.6282 10.6562C10.5958 10.6829 10.5639 10.7101 10.5324 10.738C10.5302 10.7399 10.528 10.7417 10.5258 10.7437L10.2821 6.08391L10.2212 4.91904C10.2212 4.91851 10.2211 4.91798 10.2211 4.91742L10.1551 3.6546C10.0915 2.43927 11.0021 1.41668 12.148 1.41668ZM1.85903 3.41942C1.918 2.29583 2.79272 1.41664 3.85206 1.41664C4.99797 1.41664 5.90856 2.43927 5.84509 3.6547L5.77944 4.91018C5.77925 4.91317 5.77872 4.91605 5.77856 4.91908L5.55656 9.16908C5.55647 9.1709 5.5565 9.17273 5.55641 9.17455L5.47434 10.7437C5.47172 10.7414 5.46897 10.7392 5.46634 10.7369C5.43581 10.7098 5.40478 10.6833 5.37331 10.6574C5.36641 10.6517 5.35944 10.6461 5.35247 10.6405C5.32044 10.6145 5.288 10.589 5.25506 10.5643C5.24944 10.5601 5.24375 10.556 5.23809 10.5518C5.20463 10.527 5.17081 10.5027 5.13647 10.4792C5.13431 10.4777 5.13222 10.4762 5.13003 10.4747C5.09456 10.4506 5.0585 10.4273 5.02212 10.4045C5.01581 10.4006 5.00956 10.3966 5.00322 10.3926C4.96816 10.371 4.93263 10.3502 4.89678 10.3299C4.88925 10.3256 4.88172 10.3214 4.87416 10.3172C4.83816 10.2972 4.80181 10.2779 4.76506 10.2593C4.75825 10.2558 4.75141 10.2525 4.74456 10.2491C4.70625 10.23 4.66766 10.2116 4.62859 10.194C4.62553 10.1927 4.62241 10.1914 4.61934 10.19C4.58112 10.173 4.54247 10.1568 4.50353 10.1413C4.49806 10.1391 4.49266 10.1368 4.48716 10.1347C4.44797 10.1193 4.40838 10.1049 4.3685 10.0911C4.36075 10.0884 4.35303 10.0857 4.34528 10.0831C4.30584 10.0697 4.26612 10.0571 4.22606 10.0453C4.21844 10.0431 4.21075 10.0409 4.20309 10.0387C4.162 10.0269 4.12066 10.0158 4.07894 10.0057C4.07394 10.0045 4.06888 10.0034 4.06388 10.0022C4.02225 9.99232 3.98031 9.98318 3.93812 9.97498C3.93456 9.97429 3.93103 9.97349 3.9275 9.97282C3.88441 9.96459 3.84097 9.95745 3.79731 9.95098C3.79 9.94988 3.78269 9.94875 3.77534 9.94772C3.73287 9.94175 3.69016 9.93667 3.64719 9.93242C3.63912 9.93162 3.63103 9.93085 3.62297 9.93012C3.57953 9.92614 3.53591 9.92295 3.492 9.92076C3.48569 9.92046 3.47934 9.92026 3.47303 9.92C3.42675 9.91797 3.38028 9.91668 3.3335 9.91668C3.33347 9.91668 3.33344 9.91668 3.33341 9.91668H3.33334C3.29538 9.91668 3.25766 9.91761 3.22 9.91893C3.21047 9.91927 3.20097 9.91967 3.19147 9.9201C3.15572 9.92169 3.12006 9.92372 3.08463 9.92651C3.08272 9.92667 3.08078 9.92674 3.07888 9.9269C3.04166 9.92989 3.00466 9.93374 2.96778 9.93799C2.95866 9.93906 2.94956 9.94019 2.94047 9.94131C2.90663 9.94553 2.87294 9.95018 2.83941 9.95549C2.83616 9.95602 2.83284 9.95642 2.82959 9.95695C2.79322 9.96283 2.75709 9.96947 2.72109 9.97658C2.71244 9.97827 2.70381 9.98006 2.69516 9.98186C2.66284 9.9885 2.63069 9.9956 2.59875 10.0032C2.59459 10.0042 2.59044 10.0051 2.58628 10.0061C2.55078 10.0148 2.51553 10.0241 2.48047 10.034C2.47241 10.0362 2.46438 10.0386 2.45631 10.0409C2.42531 10.0499 2.39447 10.0592 2.36384 10.0691C2.35912 10.0706 2.35434 10.0721 2.34963 10.0736C2.31509 10.0849 2.28084 10.0969 2.24678 10.1094C2.23931 10.1121 2.23191 10.1149 2.2245 10.1177C2.19472 10.1288 2.16509 10.1404 2.13569 10.1525C2.13056 10.1545 2.12538 10.1566 2.12025 10.1587C2.08675 10.1726 2.05353 10.1872 2.02056 10.2022C2.01388 10.2052 2.00725 10.2083 2.00059 10.2115C1.97184 10.2248 1.94331 10.2385 1.91497 10.2527C1.90962 10.2554 1.90422 10.258 1.89887 10.2607C1.86653 10.2771 1.8345 10.2941 1.80272 10.3116C1.79675 10.3148 1.79084 10.3182 1.78491 10.3216C1.75725 10.337 1.72984 10.3528 1.70266 10.3691C1.69716 10.3724 1.69159 10.3756 1.68613 10.3789C1.655 10.3977 1.62422 10.4171 1.59372 10.4369C1.58869 10.4402 1.58369 10.4436 1.57866 10.4469C1.55191 10.4646 1.52544 10.4826 1.49919 10.501C1.49566 10.5034 1.49203 10.5058 1.48853 10.5082L1.85903 3.41942ZM3.33334 15.5833C2.22888 15.5833 1.33334 14.6318 1.33334 13.4583H1.33341C1.33341 12.2848 2.22891 11.3334 3.33337 11.3333C4.43784 11.3334 5.33334 12.2848 5.33334 13.4583C5.33334 14.6319 4.43781 15.5833 3.33334 15.5833ZM9.07284 8.5H6.92709L7.07528 5.66668H8.92484L8.95138 6.17396L9.07284 8.5ZM12.6667 15.5833C11.5622 15.5833 10.6667 14.6318 10.6667 13.4583C10.6667 12.2848 11.5622 11.3333 12.6667 11.3333C13.7711 11.3333 14.6667 12.2848 14.6667 13.4583C14.6667 14.6318 13.7712 15.5833 12.6667 15.5833Z" fill="#06313A"/>
</svg>
